<?xml version="1.0" standalone="no"?>
<!DOCTYPE svg PUBLIC "-//W3C//DTD SVG 20010904//EN"
 "http://www.w3.org/TR/2001/REC-SVG-20010904/DTD/svg10.dtd">
<svg version="1.0" xmlns="http://www.w3.org/2000/svg"
	 width="700.000000pt" height="700.000000pt" viewBox="0 0 700.000000 700.000000"
	 preserveAspectRatio="xMidYMid meet">
<metadata>
Created by potrace 1.11, written by Peter Selinger 2001-2013
</metadata>
	<g transform="translate(0.000000,700.000000) scale(0.100000,-0.100000)"
	   fill="#000000" stroke="none">
		<path d="M1515 4960 c-38 -5 -100 -13 -137 -20 l-67 -12 -15 -51 c-26 -91 -42
-171 -51 -257 -4 -30 -9 -63 -11 -73 -7 -21 -7 -313 0 -342 3 -18 10 -65 22
-149 7 -52 53 -220 80 -291 42 -112 48 -127 76 -181 l27 -51 -56 -83 c-171
-255 -319 -598 -368 -855 -5 -22 -9 -44 -10 -50 -14 -63 -26 -129 -30 -170 -4
-27 -8 -61 -11 -75 -2 -14 -6 -80 -9 -148 l-5 -122 2550 0 2551 0 -5 113 c-4
99 -26 286 -40 357 -3 14 -11 50 -17 80 -32 158 -125 424 -205 583 -42 84
-126 227 -183 311 l-40 59 24 46 c53 103 118 287 151 426 6 29 20 118 29 202
7 59 8 310 1 349 -3 16 -7 49 -10 74 -5 50 -30 167 -52 247 l-15 51 -72 12
c-40 6 -83 14 -97 17 -56 12 -350 10 -445 -3 -336 -46 -686 -196 -917 -396
-60 -51 -65 -52 -146 -29 -18 5 -36 10 -40 10 -10 1 -93 13 -117 17 -115 22
-531 25 -665 6 -47 -7 -103 -15 -125 -18 -22 -3 -42 -7 -45 -9 -3 -2 -25 -6
-50 -10 -25 -4 -48 -9 -53 -12 -8 -5 -44 16 -69 41 -47 46 -220 159 -334 217
-112 57 -274 120 -340 133 -10 2 -46 11 -79 19 -33 9 -85 18 -115 22 -30 4
-64 9 -75 12 -37 8 -320 11 -390 3z"/>
</g>
</svg>
