<?xml version="1.0" encoding="utf-8"?>
<!-- Generator: Adobe Illustrator 16.0.0, SVG Export Plug-In . SVG Version: 6.00 Build 0)  -->
<!DOCTYPE svg PUBLIC "-//W3C//DTD SVG 1.1//EN" "http://www.w3.org/Graphics/SVG/1.1/DTD/svg11.dtd">
<svg version="1.1" id="Layer_4" xmlns="http://www.w3.org/2000/svg" xmlns:xlink="http://www.w3.org/1999/xlink" x="0px" y="0px"
	 width="1445.668px" height="832.896px" viewBox="0 0 1445.668 832.896" enable-background="new 0 0 1445.668 832.896"
	 xml:space="preserve">
<g>
	<g>
		<path d="M170.725,87.082c-4.949,26.132-7.445,52.783-7.445,79.674c0,59.113,11.988,116.383,34.801,169.039
			c71.531-75.482,159.168-135.541,257.416-174.674c-70.75-49.447-154.775-76.079-242.896-76.079
			C198.6,85.042,184.613,85.726,170.725,87.082z"/>
		<path d="M1274.943,87.082c4.949,26.132,7.445,52.783,7.445,79.674c0,59.113-11.988,116.383-34.801,169.039
			c-71.53-75.482-159.17-135.541-257.418-174.674c70.75-49.447,154.775-76.079,242.898-76.079
			C1247.068,85.042,1261.055,85.726,1274.943,87.082z"/>
		<path fill="#FFFFFF" d="M1307.223,407.395c38.414-71.688,60.205-153.617,60.205-240.639c0-53.953-8.383-105.946-23.902-154.759
			C1307.957,4.146,1270.998,0,1233.068,0C1102.273,0,982.98,49.221,892.682,130.144c-54.475-13.12-111.348-20.079-169.848-20.079
			h-0.002c-58.5,0-115.373,6.959-169.848,20.079C462.689,49.221,343.393,0,212.6,0c-37.93,0-74.889,4.146-110.457,11.997
			C86.623,60.81,78.24,112.803,78.24,166.756c0,87.021,21.793,168.951,60.205,240.639C51.379,526.77,0,673.834,0,832.896h42.52
			h42.52h42.52h85.043c0-145.459,60.869-276.709,158.527-369.65l0.311-0.289c25.41-24.131,59.75-38.929,97.551-38.929
			c78.281,0,141.74,63.458,141.74,141.739c0,40.42-16.932,76.889-44.07,102.709c-15.07,14.321-28.17,30.7-38.861,48.67
			c-20.16,33.882-31.74,73.461-31.74,115.75h113.389c0-62.619,50.764-113.385,113.385-113.385h0.002
			c62.621,0,113.385,50.766,113.385,113.385h113.389c0-42.289-11.58-81.868-31.74-115.75c-10.691-17.97-23.791-34.349-38.861-48.67
			c-27.139-25.82-44.068-62.289-44.068-102.709c0-78.281,63.461-141.739,141.738-141.739c37.803,0,72.141,14.798,97.553,38.929
			l0.309,0.289c97.659,92.941,158.529,224.191,158.529,369.65h85.043h42.518h42.521h42.52
			C1445.668,673.834,1394.289,526.77,1307.223,407.395z M1233.068,85.042c14,0,27.986,0.684,41.875,2.04
			c4.949,26.132,7.445,52.783,7.445,79.674c0,59.113-11.988,116.383-34.801,169.039c-71.53-75.482-159.17-135.541-257.418-174.674
			C1060.92,111.674,1144.945,85.042,1233.068,85.042z M170.725,87.082c13.889-1.356,27.875-2.04,41.875-2.04
			c88.121,0,172.146,26.632,242.896,76.079c-98.248,39.133-185.885,99.191-257.416,174.674
			c-22.813-52.656-34.801-109.926-34.801-169.039C163.279,139.865,165.775,113.214,170.725,87.082z M722.834,540.133v0.006
			l-0.002,0.005v-0.011c-8.639-86.682-60.672-160.576-134.053-199.666c42.711-11.609,87.66-17.801,134.051-17.801h0.002h0.002h0.002
			c46.393,0,91.34,6.191,134.051,17.801C783.506,379.557,731.473,453.451,722.834,540.133z"/>
		<path d="M856.887,340.467c-42.711-11.609-87.658-17.801-134.051-17.801h-0.002h-0.002h-0.002
			c-46.391,0-91.34,6.191-134.051,17.801c73.381,39.09,125.414,112.984,134.053,199.666v0.011l0.002-0.005v0.002v-0.008
			C731.473,453.451,783.506,379.557,856.887,340.467z"/>
		<path d="M722.834,719.512h-0.002c-62.621,0-113.385,50.766-113.385,113.385h113.385h0.002h113.385
			C836.219,770.277,785.455,719.512,722.834,719.512z"/>
		<path d="M566.66,668.477c27.139-25.82,44.07-62.289,44.07-102.709c0-78.281-63.459-141.739-141.74-141.739
			c-37.801,0-72.141,14.798-97.551,38.929l-0.311,0.289c-97.658,92.941-158.527,224.191-158.527,369.65h283.457
			c0-42.289,11.58-81.868,31.74-115.75C538.49,699.177,551.59,682.798,566.66,668.477z M468.994,494.896
			c39.139,0,70.867,31.729,70.867,70.867c0,39.139-31.729,70.866-70.867,70.866s-70.865-31.728-70.865-70.866
			C398.129,526.626,429.855,494.896,468.994,494.896z"/>
		<path d="M917.867,717.146c20.16,33.882,31.74,73.461,31.74,115.75h283.459c0-145.459-60.87-276.709-158.529-369.65l-0.309-0.289
			c-25.412-24.131-59.75-38.929-97.553-38.929c-78.277,0-141.738,63.458-141.738,141.739c0,40.42,16.93,76.889,44.068,102.709
			C894.076,682.798,907.176,699.177,917.867,717.146z M1047.537,565.764c0,39.139-31.725,70.866-70.865,70.866
			c-39.139,0-70.867-31.728-70.867-70.866c0-39.138,31.729-70.867,70.867-70.867
			C1015.813,494.896,1047.537,526.626,1047.537,565.764z"/>
		<circle fill="#FFFFFF" cx="468.994" cy="565.763" r="70.867"/>
		<circle fill="#FFFFFF" cx="976.672" cy="565.763" r="70.867"/>
	</g>
</g>
</svg>
