<?xml version="1.0" encoding="utf-8"?>
<!-- Generator: Adobe Illustrator 16.0.0, SVG Export Plug-In . SVG Version: 6.00 Build 0)  -->
<!DOCTYPE svg PUBLIC "-//W3C//DTD SVG 1.1//EN" "http://www.w3.org/Graphics/SVG/1.1/DTD/svg11.dtd">
<svg version="1.1" id="Layer_4" xmlns="http://www.w3.org/2000/svg" xmlns:xlink="http://www.w3.org/1999/xlink" x="0px" y="0px"
	 width="4935.985px" height="832.918px" viewBox="0 0 4935.985 832.918" enable-background="new 0 0 4935.985 832.918"
	 xml:space="preserve">
<g>
	<g>
		<path d="M3661.042,87.658c-4.949,26.132-7.445,52.783-7.445,79.674c0,59.113,11.988,116.383,34.801,169.039
			c71.531-75.482,159.168-135.541,257.416-174.674c-70.75-49.447-154.775-76.079-242.896-76.079
			C3688.917,85.618,3674.931,86.301,3661.042,87.658z"/>
		<path d="M4765.26,87.658c4.949,26.132,7.445,52.783,7.445,79.674c0,59.113-11.988,116.383-34.801,169.039
			c-71.53-75.482-159.17-135.541-257.418-174.674c70.75-49.447,154.775-76.079,242.898-76.079
			C4737.385,85.618,4751.371,86.301,4765.26,87.658z"/>
		<path fill="#FFFFFF" d="M4797.539,407.97c38.414-71.688,60.205-153.617,60.205-240.639c0-53.953-8.383-105.946-23.902-154.759
			c-35.568-7.851-72.527-11.997-110.457-11.997c-130.795,0-250.088,49.221-340.387,130.144
			c-54.475-13.12-111.348-20.079-169.848-20.079h-0.002c-58.5,0-115.373,6.959-169.847,20.079
			C3953.007,49.796,3833.71,0.576,3702.917,0.576c-37.93,0-74.889,4.146-110.457,11.997
			c-15.52,48.813-23.902,100.806-23.902,154.759c0,87.021,21.793,168.951,60.205,240.639
			c-87.066,119.375-138.445,266.439-138.445,425.502h42.52h42.52h42.52h85.043c0-145.459,60.869-276.709,158.527-369.65l0.311-0.289
			c25.41-24.131,59.75-38.928,97.551-38.928c78.281,0,141.739,63.457,141.739,141.738c0,40.42-16.932,76.889-44.07,102.709
			c-15.069,14.322-28.169,30.701-38.86,48.67c-20.16,33.883-31.74,73.461-31.74,115.75h113.388
			c0-62.619,50.764-113.385,113.385-113.385h0.002c62.621,0,113.385,50.766,113.385,113.385h113.389
			c0-42.289-11.58-81.867-31.74-115.75c-10.691-17.969-23.791-34.348-38.861-48.67c-27.139-25.82-44.068-62.289-44.068-102.709
			c0-78.281,63.461-141.738,141.738-141.738c37.803,0,72.141,14.797,97.553,38.928l0.309,0.289
			c97.659,92.941,158.529,224.191,158.529,369.65h85.043h42.518h42.521h42.52C4935.984,674.41,4884.605,527.345,4797.539,407.97z
			 M4723.385,85.618c14,0,27.986,0.684,41.875,2.04c4.949,26.132,7.445,52.783,7.445,79.674c0,59.113-11.988,116.383-34.801,169.039
			c-71.53-75.482-159.17-135.541-257.418-174.674C4551.236,112.25,4635.262,85.618,4723.385,85.618z M3661.042,87.658
			c13.889-1.356,27.875-2.04,41.875-2.04c88.121,0,172.146,26.632,242.896,76.079c-98.248,39.133-185.885,99.191-257.416,174.674
			c-22.813-52.656-34.801-109.926-34.801-169.039C3653.597,140.441,3656.093,113.79,3661.042,87.658z M4213.15,540.709v0.006
			l-0.002,0.006v-0.012c-8.639-86.682-60.672-160.576-134.053-199.666c42.711-11.609,87.66-17.801,134.051-17.801h0.002h0.002h0.002
			c46.393,0,91.34,6.191,134.051,17.801C4273.822,380.132,4221.789,454.027,4213.15,540.709z"/>
		<path d="M4347.203,341.042c-42.711-11.609-87.658-17.801-134.051-17.801h-0.002h-0.002h-0.002
			c-46.391,0-91.34,6.191-134.051,17.801c73.381,39.09,125.414,112.985,134.053,199.666v0.012l0.002-0.006v0.002v-0.008
			C4221.789,454.027,4273.822,380.132,4347.203,341.042z"/>
		<path d="M4213.15,720.088h-0.002c-62.621,0-113.385,50.766-113.385,113.385h113.385h0.002h113.385
			C4326.535,770.853,4275.771,720.088,4213.15,720.088z"/>
		<path d="M4056.977,669.052c27.139-25.82,44.07-62.289,44.07-102.709c0-78.281-63.458-141.738-141.739-141.738
			c-37.801,0-72.141,14.797-97.551,38.928l-0.311,0.289c-97.658,92.941-158.527,224.191-158.527,369.65h283.457
			c0-42.289,11.58-81.867,31.74-115.75C4028.808,699.754,4041.907,683.375,4056.977,669.052z M3959.312,495.472
			c39.139,0,70.867,31.73,70.867,70.867c0,39.139-31.729,70.867-70.867,70.867s-70.865-31.729-70.865-70.867
			C3888.446,527.203,3920.173,495.472,3959.312,495.472z"/>
		<path d="M4408.184,717.722c20.16,33.883,31.74,73.461,31.74,115.75h283.459c0-145.459-60.87-276.709-158.529-369.65l-0.309-0.289
			c-25.412-24.131-59.75-38.928-97.553-38.928c-78.277,0-141.738,63.457-141.738,141.738c0,40.42,16.93,76.889,44.068,102.709
			C4384.393,683.375,4397.492,699.754,4408.184,717.722z M4537.854,566.34c0,39.139-31.725,70.867-70.865,70.867
			c-39.139,0-70.867-31.729-70.867-70.867c0-39.137,31.729-70.867,70.867-70.867C4506.129,495.472,4537.854,527.203,4537.854,566.34
			z"/>
		<circle fill="#FFFFFF" cx="3959.312" cy="566.34" r="70.867"/>
		<circle fill="#FFFFFF" cx="4466.988" cy="566.34" r="70.867"/>
	</g>
	<g>
		<g>
			<path d="M317.384,0.641c34.324,0,62.116,11.003,83.362,33c21.524,22.279,32.151,48.502,32.151,78.681
				c0,30.461-10.627,56.966-32.151,79.813c-21.247,22.279-48.765,33.559-82.545,33.559h-22.613l138.939,130.854H305.939
				L108.696,154.624h193.161c10.895,0,19.885-3.662,27.238-11.281c7.083-7.332,10.628-16.073,10.628-26.223
				c0-10.435-3.545-19.18-10.354-26.231c-6.811-7.332-15.527-10.999-26.7-10.999H94.532v276.658H0V0.641H317.384z"/>
			<path d="M2206.326,35.379c-0.503-0.477-1.005-0.975-1.536-1.451C2180.489,11.415,2148.176,0,2107.857,0h-166.094
				c-40.318,0-72.63,11.415-96.929,33.928c-0.535,0.477-1.035,0.975-1.538,1.451c-24.188,23.493-36.271,51.228-36.271,83.509
				v119.417c0,31.419,12.082,58.872,36.555,82.924c0.385,0.364,0.775,0.754,1.169,1.118c24.887,23.324,57.029,34.851,97.014,34.851
				h166.094c39.987,0,72.127-11.527,97.02-34.881c0.388-0.334,0.777-0.724,1.17-1.088c24.466-24.052,36.58-51.505,36.58-82.924
				V118.889C2242.627,86.607,2230.513,58.872,2206.326,35.379z M1967.095,276.532c-17.551-0.277-31.947-5.105-43.468-14.73
				c-11.215-9.629-16.992-22.63-16.992-38.755v-90.573c0-16.156,5.467-29.153,16.715-39.059
				c11.798-9.907,26.475-15.008,43.745-15.008h115.429c17.276,0,31.979,5.101,43.782,15.008
				c11.216,9.906,16.683,22.903,16.683,39.059v90.573c0,16.125-5.748,29.126-16.989,38.755
				c-11.496,9.625-25.894,14.453-43.476,14.73H1967.095z"/>
			<path d="M2689.382,35.379c-0.503-0.477-1.006-0.975-1.536-1.451C2663.545,11.415,2631.231,0,2590.913,0h-166.095
				c-40.317,0-72.629,11.415-96.927,33.928c-0.536,0.477-1.036,0.975-1.539,1.451c-24.188,23.493-36.271,51.228-36.271,83.509
				v119.417c0,31.419,12.083,58.872,36.554,82.924c0.386,0.364,0.776,0.754,1.171,1.118c24.885,23.324,57.03,34.851,97.012,34.851
				h166.095c39.986,0,72.127-11.527,97.018-34.881c0.389-0.334,0.782-0.724,1.171-1.088c24.466-24.052,36.583-51.505,36.583-82.924
				V118.889C2725.685,86.607,2713.567,58.872,2689.382,35.379z M2450.15,276.532c-17.551-0.277-31.947-5.105-43.468-14.73
				c-11.216-9.629-16.992-22.63-16.992-38.755v-90.573c0-16.156,5.467-29.153,16.717-39.059
				c11.796-9.907,26.472-15.008,43.743-15.008h115.429c17.275,0,31.982,5.101,43.782,15.008
				c11.218,9.906,16.683,22.903,16.683,39.059v90.573c0,16.125-5.749,29.126-16.992,38.755c-11.49,9.625-25.892,14.453-43.473,14.73
				H2450.15z"/>
			<path d="M1376.668,338.356c-18.925-18.6-31.715-39.289-38.393-61.832h-213.75c-17.564-0.282-31.962-5.092-43.472-14.717
				c-11.233-9.621-16.988-22.638-16.988-38.772v-90.569c0-16.134,5.465-29.152,16.7-39.059
				c11.798-9.907,26.485-14.999,43.761-14.999h214.17c6.754-22.184,19.302-42.283,37.59-60.042
				c7.274-6.981,15.144-13.1,23.594-18.357h-300.69c-41.173,0-73.996,11.887-98.468,35.379
				c-24.183,23.493-36.28,51.228-36.28,83.492v119.434c0,31.419,12.097,58.872,36.564,82.928
				c25.053,24.056,57.585,35.947,98.185,35.947h301.685C1392.225,351.816,1384.145,345.541,1376.668,338.356z"/>
			<path d="M1797.96,338.356c-18.922-18.6-31.711-39.289-38.389-61.832h-213.754c-17.568-0.282-31.965-5.092-43.479-14.717
				c-11.226-9.621-16.985-22.638-16.985-38.772v-90.569c0-16.134,5.473-29.152,16.695-39.059
				c11.805-9.907,26.494-14.999,43.77-14.999h214.166c6.756-22.184,19.308-42.283,37.594-60.042
				c7.278-6.981,15.148-13.1,23.597-18.357h-300.694c-41.172,0-73.999,11.887-98.471,35.379
				c-24.184,23.493-36.279,51.228-36.279,83.492v119.434c0,31.419,12.095,58.872,36.567,82.928
				c25.049,24.056,57.586,35.947,98.183,35.947h301.687C1813.521,351.816,1805.44,345.541,1797.96,338.356z"/>
			<path d="M3207.666,356.717h-94.806l-245.187-232.317v232.317h-94.534V0.477h94.534l245.187,233.166V0.477h94.806V356.717z"/>
			<g>
				<path d="M828.964,356.549V132.067c-0.256-16.641-5.354-29.616-15.05-38.92c-9.955-9.868-22.708-14.665-38.784-14.665H624.092
					c-15.817,0-28.575,4.797-38.526,14.665c-9.438,9.59-14.539,22.561-15.051,38.92v224.482h-88.531V119.096
					c0-32.151,10.714-59.791,32.148-83.197C535.814,12.49,564.9,0.641,601.386,0.641H797.58c36.999,0,66.081,11.848,87.258,35.258
					c21.431,23.12,32.146,50.478,32.146,82.348v238.302H828.964z"/>
				<rect x="549.964" y="154.624" width="299.553" height="71.071"/>
			</g>
		</g>
		<g>
			<path d="M2688.374,524.963c29.703,0,53.745,9.516,72.136,28.55c18.621,19.274,27.815,41.971,27.815,68.081
				c0,26.353-9.194,49.29-27.815,69.061c-18.391,19.271-42.192,29.035-71.427,29.035h-19.566l120.224,113.229h-111.267
				L2507.81,658.199h167.131c9.43,0,17.208-3.177,23.576-9.764c6.126-6.34,9.19-13.906,9.19-22.69c0-9.027-3.064-16.593-8.956-22.7
				c-5.897-6.345-13.442-9.516-23.104-9.516h-180.093v239.389h-81.797V524.963H2688.374z"/>
			<path d="M762.85,555.011c-0.43-0.408-0.865-0.837-1.324-1.252c-21.027-19.479-48.986-29.356-83.87-29.356H533.933
				c-34.879,0-62.837,9.877-83.865,29.356c-0.459,0.415-0.891,0.844-1.326,1.252c-20.931,20.334-31.384,44.332-31.384,72.264
				v103.321c0,27.188,10.453,50.941,31.623,71.757c0.338,0.316,0.676,0.653,1.014,0.961c21.531,20.186,49.347,30.158,83.938,30.158
				h143.724c34.598,0,62.409-9.973,83.942-30.175c0.338-0.291,0.672-0.628,1.014-0.944c21.17-20.815,31.647-44.568,31.647-71.757
				V627.275C794.26,599.344,783.783,575.345,762.85,555.011z M555.858,763.676c-15.182-0.238-27.641-4.416-37.615-12.745
				c-9.703-8.329-14.7-19.58-14.7-33.538v-78.36c0-13.977,4.734-25.226,14.465-33.807c10.208-8.559,22.906-12.979,37.85-12.979
				h99.875c14.946,0,27.665,4.421,37.877,12.979c9.71,8.581,14.439,19.83,14.439,33.807v78.36c0,13.958-4.974,25.209-14.699,33.538
				c-9.953,8.329-22.407,12.507-37.618,12.745H555.858z"/>
			<path d="M98.209,712.369c-29.076,0-52.873-9.269-71.138-28.064C8.804,665.514-0.331,643.07-0.331,617.204
				c0-25.617,9.135-47.337,27.401-65.638c17.547-17.815,41.098-26.595,71.138-26.595h256.934l-22.834,66.368H107.108
				c-6.494,0-12.024,2.44-16.587,7.077c-4.327,4.395-6.732,10.002-6.973,17.079c0.241,5.855,2.646,11.22,6.973,16.104
				c5.049,4.641,11.055,7.081,17.781,7.081h166.803c30.528,0,54.803,9.27,73.065,28.056c18.745,19.281,28.123,41.729,28.123,67.592
				c0,26.838-9.377,50.022-28.123,69.299c-18.984,19.519-43.261,29.277-73.065,29.277H3.515l22.834-66.611h245.634
				c7.686,0,14.184-2.687,19.466-8.056c5.294-5.366,7.928-11.705,7.928-19.029c0-7.315-2.634-13.659-7.685-18.787
				c-5.049-5.368-11.055-8.052-18.507-8.052H98.209z"/>
			<path d="M1167.976,653.537l-24.7,68.632H925.972v110.893h-90.649V524.819h375.481l-24.703,68.636H925.972v60.082H1167.976z"/>
			<path d="M1363.453,832.918V593.455h-111.591l24.704-68.492h453.587l-30.361,68.492h-255.525v239.463H1363.453z"/>
			<path d="M1942.943,737.838l91.163-213.122h88.722L1986.207,833.16h-84.079l-94.345-207.502l-91.897,207.502h-83.836
				l-89.397-198.644h89.905l44.225,103.321l94.436-212.875h77.658L1942.943,737.838z"/>
			<path d="M3187.016,646.389l-22.559,62.895h-243.422v55.31h286.962l-24.656,68.771h-352.542v-308.85h377.198l-24.656,68.767
				h-262.306v53.107H3187.016z"/>
			<g>
				<path d="M2344.858,555.47c-18.298-20.255-43.476-30.517-75.493-30.517h-105.478l-29.84,67.353h115.909
					c13.904,0,24.94,4.155,33.533,12.701c8.403,8.04,12.819,19.268,13.034,33.678v194.228h76.172V626.711
					C2372.696,599.14,2363.427,575.479,2344.858,555.47z"/>
				<polygon points="2315.526,658.195 2315.526,719.68 2077.627,719.68 2104.863,658.195 				"/>
			</g>
		</g>
	</g>
</g>
</svg>
