<?xml version="1.0" encoding="utf-8"?>
<!-- Generator: Adobe Illustrator 16.0.0, SVG Export Plug-In . SVG Version: 6.00 Build 0)  -->
<!DOCTYPE svg PUBLIC "-//W3C//DTD SVG 1.1//EN" "http://www.w3.org/Graphics/SVG/1.1/DTD/svg11.dtd">
<svg version="1.1" id="Layer_4" xmlns="http://www.w3.org/2000/svg" xmlns:xlink="http://www.w3.org/1999/xlink" x="0px" y="0px"
	 width="1984.252px" height="1984.25px" viewBox="0 0 1984.252 1984.25" enable-background="new 0 0 1984.252 1984.25"
	 xml:space="preserve">
<g>
	<g>
		<path d="M440.017,662.759c-4.949,26.132-7.445,52.783-7.445,79.674c0,59.113,11.988,116.383,34.801,169.039
			c71.531-75.482,159.168-135.541,257.416-174.674c-70.75-49.447-154.775-76.079-242.896-76.079
			C467.892,660.719,453.905,661.402,440.017,662.759z"/>
		<path d="M1544.235,662.759c4.949,26.132,7.445,52.783,7.445,79.674c0,59.113-11.988,116.383-34.801,169.039
			c-71.53-75.482-159.17-135.541-257.418-174.674c70.75-49.447,154.775-76.079,242.898-76.079
			C1516.36,660.719,1530.347,661.402,1544.235,662.759z"/>
		<path fill="#FFFFFF" d="M1576.515,983.071c38.414-71.688,60.205-153.617,60.205-240.639c0-53.953-8.383-105.946-23.902-154.759
			c-35.568-7.851-72.527-11.997-110.457-11.997c-130.795,0-250.088,49.221-340.387,130.144
			c-54.475-13.12-111.348-20.079-169.848-20.079h-0.002c-58.5,0-115.373,6.959-169.848,20.079
			c-90.295-80.923-209.592-130.144-340.385-130.144c-37.93,0-74.889,4.146-110.457,11.997
			c-15.52,48.813-23.902,100.806-23.902,154.759c0,87.021,21.793,168.951,60.205,240.639
			c-87.066,119.375-138.445,266.439-138.445,425.502h42.52h42.52h42.52h85.043c0-145.459,60.869-276.709,158.527-369.65l0.311-0.289
			c25.41-24.131,59.75-38.929,97.551-38.929c78.281,0,141.74,63.458,141.74,141.739c0,40.42-16.932,76.889-44.07,102.709
			c-15.07,14.321-28.17,30.7-38.861,48.67c-20.16,33.882-31.74,73.461-31.74,115.75h113.389
			c0-62.619,50.764-113.385,113.385-113.385h0.002c62.621,0,113.385,50.766,113.385,113.385h113.389
			c0-42.289-11.58-81.868-31.74-115.75c-10.691-17.97-23.791-34.349-38.861-48.67c-27.139-25.82-44.068-62.289-44.068-102.709
			c0-78.281,63.461-141.739,141.738-141.739c37.803,0,72.141,14.798,97.553,38.929l0.309,0.289
			c97.659,92.941,158.529,224.191,158.529,369.65h85.043h42.518h42.521h42.52C1714.96,1249.511,1663.581,1102.446,1576.515,983.071z
			 M1502.36,660.719c14,0,27.986,0.684,41.875,2.04c4.949,26.132,7.445,52.783,7.445,79.674c0,59.113-11.988,116.383-34.801,169.039
			c-71.53-75.482-159.17-135.541-257.418-174.674C1330.212,687.351,1414.237,660.719,1502.36,660.719z M440.017,662.759
			c13.889-1.356,27.875-2.04,41.875-2.04c88.121,0,172.146,26.632,242.896,76.079c-98.248,39.133-185.885,99.191-257.416,174.674
			c-22.813-52.656-34.801-109.926-34.801-169.039C432.571,715.542,435.067,688.891,440.017,662.759z M992.126,1115.81v0.006
			l-0.002,0.005v-0.011c-8.639-86.682-60.672-160.576-134.053-199.666c42.711-11.609,87.66-17.801,134.051-17.801h0.002h0.002h0.002
			c46.393,0,91.34,6.191,134.051,17.801C1052.798,955.233,1000.765,1029.128,992.126,1115.81z"/>
		<path d="M1126.179,916.144c-42.711-11.609-87.658-17.801-134.051-17.801h-0.002h-0.002h-0.002
			c-46.391,0-91.34,6.191-134.051,17.801c73.381,39.09,125.414,112.984,134.053,199.666v0.011l0.002-0.005v0.002v-0.008
			C1000.765,1029.128,1052.798,955.233,1126.179,916.144z"/>
		<path d="M992.126,1295.188h-0.002c-62.621,0-113.385,50.766-113.385,113.385h113.385h0.002h113.385
			C1105.511,1345.954,1054.747,1295.188,992.126,1295.188z"/>
		<path d="M835.952,1244.153c27.139-25.82,44.07-62.289,44.07-102.709c0-78.281-63.459-141.739-141.74-141.739
			c-37.801,0-72.141,14.798-97.551,38.929l-0.311,0.289c-97.658,92.941-158.527,224.191-158.527,369.65h283.457
			c0-42.289,11.58-81.868,31.74-115.75C807.782,1274.854,820.882,1258.475,835.952,1244.153z M738.286,1070.573
			c39.139,0,70.867,31.729,70.867,70.867c0,39.139-31.729,70.866-70.867,70.866s-70.865-31.728-70.865-70.866
			C667.421,1102.303,699.147,1070.573,738.286,1070.573z"/>
		<path d="M1187.159,1292.823c20.16,33.882,31.74,73.461,31.74,115.75h283.459c0-145.459-60.87-276.709-158.529-369.65l-0.309-0.289
			c-25.412-24.131-59.75-38.929-97.553-38.929c-78.277,0-141.738,63.458-141.738,141.739c0,40.42,16.93,76.889,44.068,102.709
			C1163.368,1258.475,1176.468,1274.854,1187.159,1292.823z M1316.829,1141.44c0,39.139-31.725,70.866-70.865,70.866
			c-39.139,0-70.867-31.728-70.867-70.866c0-39.138,31.729-70.867,70.867-70.867
			C1285.104,1070.573,1316.829,1102.303,1316.829,1141.44z"/>
		<circle fill="#FFFFFF" cx="738.286" cy="1141.44" r="70.867"/>
		<circle fill="#FFFFFF" cx="1245.964" cy="1141.44" r="70.867"/>
	</g>
</g>
</svg>
