<?xml version="1.0" encoding="utf-8"?>
<!-- Generator: Adobe Illustrator 16.0.0, SVG Export Plug-In . SVG Version: 6.00 Build 0)  -->
<!DOCTYPE svg PUBLIC "-//W3C//DTD SVG 1.1//EN" "http://www.w3.org/Graphics/SVG/1.1/DTD/svg11.dtd">
<svg version="1.1" id="Layer_4" xmlns="http://www.w3.org/2000/svg" xmlns:xlink="http://www.w3.org/1999/xlink" x="0px" y="0px"
	 width="1984.252px" height="1984.25px" viewBox="0 0 1984.252 1984.25" enable-background="new 0 0 1984.252 1984.25"
	 xml:space="preserve">
<rect x="0" width="1984.251" height="1984.25"/>
<g>
	<g>
		<path d="M440.017,437.152c-4.949,26.132-7.445,52.783-7.445,79.674c0,59.113,11.988,116.383,34.801,169.039
			c71.531-75.482,159.168-135.541,257.416-174.674c-70.75-49.447-154.775-76.079-242.896-76.079
			C467.892,435.112,453.905,435.796,440.017,437.152z"/>
		<path d="M1544.235,437.152c4.949,26.132,7.445,52.783,7.445,79.674c0,59.113-11.988,116.383-34.801,169.039
			c-71.53-75.482-159.17-135.541-257.418-174.674c70.75-49.447,154.775-76.079,242.898-76.079
			C1516.36,435.112,1530.346,435.796,1544.235,437.152z"/>
		<path fill="#FFFFFF" d="M1576.514,757.465c38.414-71.688,60.205-153.617,60.205-240.639c0-53.953-8.383-105.946-23.902-154.759
			c-35.568-7.851-72.527-11.997-110.457-11.997c-130.795,0-250.088,49.221-340.387,130.144
			c-54.475-13.12-111.348-20.079-169.848-20.079h-0.002c-58.5,0-115.373,6.959-169.847,20.079
			C731.981,399.291,612.685,350.07,481.892,350.07c-37.93,0-74.889,4.146-110.457,11.997
			c-15.52,48.813-23.902,100.806-23.902,154.759c0,87.021,21.793,168.951,60.205,240.639
			c-87.066,119.375-138.445,266.439-138.445,425.502h42.52h42.52h42.52h85.043c0-145.459,60.869-276.709,158.527-369.65l0.311-0.289
			c25.41-24.131,59.75-38.928,97.551-38.928c78.281,0,141.74,63.457,141.74,141.738c0,40.42-16.932,76.889-44.071,102.709
			c-15.069,14.322-28.169,30.701-38.86,48.67c-20.16,33.883-31.74,73.461-31.74,115.75h113.388
			c0-62.619,50.764-113.385,113.385-113.385h0.002c62.621,0,113.385,50.766,113.385,113.385h113.389
			c0-42.289-11.58-81.867-31.74-115.75c-10.691-17.969-23.791-34.348-38.861-48.67c-27.139-25.82-44.068-62.289-44.068-102.709
			c0-78.281,63.461-141.738,141.738-141.738c37.803,0,72.141,14.797,97.553,38.928l0.309,0.289
			c97.659,92.941,158.529,224.191,158.529,369.65h85.043h42.518h42.521h42.52C1714.959,1023.904,1663.58,876.84,1576.514,757.465z
			 M1502.36,435.112c14,0,27.986,0.684,41.875,2.04c4.949,26.132,7.445,52.783,7.445,79.674c0,59.113-11.988,116.383-34.801,169.039
			c-71.53-75.482-159.17-135.541-257.418-174.674C1330.211,461.744,1414.237,435.112,1502.36,435.112z M440.017,437.152
			c13.889-1.356,27.875-2.04,41.875-2.04c88.121,0,172.146,26.632,242.896,76.079c-98.248,39.133-185.885,99.191-257.416,174.674
			c-22.813-52.656-34.801-109.926-34.801-169.039C432.571,489.936,435.067,463.284,440.017,437.152z M992.125,890.203v0.006
			l-0.002,0.006v-0.012c-8.639-86.682-60.672-160.576-134.053-199.666c42.711-11.609,87.66-17.801,134.051-17.801h0.002h0.002h0.002
			c46.393,0,91.34,6.191,134.051,17.801C1052.797,729.627,1000.764,803.521,992.125,890.203z"/>
		<path d="M1126.178,690.537c-42.711-11.609-87.658-17.801-134.051-17.801h-0.002h-0.002h-0.002
			c-46.391,0-91.34,6.191-134.051,17.801c73.381,39.09,125.414,112.984,134.053,199.666v0.012l0.002-0.006v0.002v-0.008
			C1000.764,803.521,1052.797,729.627,1126.178,690.537z"/>
		<path d="M992.125,1069.582h-0.002c-62.621,0-113.385,50.766-113.385,113.385h113.385h0.002h113.385
			C1105.51,1120.348,1054.746,1069.582,992.125,1069.582z"/>
		<path d="M835.951,1018.547c27.139-25.82,44.071-62.289,44.071-102.709c0-78.281-63.458-141.738-141.74-141.738
			c-37.801,0-72.141,14.797-97.551,38.928l-0.311,0.289c-97.658,92.941-158.527,224.191-158.527,369.65h283.457
			c0-42.289,11.58-81.867,31.74-115.75C807.782,1049.248,820.882,1032.869,835.951,1018.547z M738.286,844.967
			c39.139,0,70.867,31.73,70.867,70.867c0,39.139-31.729,70.867-70.867,70.867s-70.865-31.729-70.865-70.867
			C667.421,876.697,699.147,844.967,738.286,844.967z"/>
		<path d="M1187.158,1067.217c20.16,33.883,31.74,73.461,31.74,115.75h283.459c0-145.459-60.87-276.709-158.529-369.65l-0.309-0.289
			c-25.412-24.131-59.75-38.928-97.553-38.928c-78.277,0-141.738,63.457-141.738,141.738c0,40.42,16.93,76.889,44.068,102.709
			C1163.367,1032.869,1176.467,1049.248,1187.158,1067.217z M1316.828,915.834c0,39.139-31.725,70.867-70.865,70.867
			c-39.139,0-70.867-31.729-70.867-70.867c0-39.137,31.729-70.867,70.867-70.867
			C1285.104,844.967,1316.828,876.697,1316.828,915.834z"/>
		<circle fill="#FFFFFF" cx="738.286" cy="915.834" r="70.867"/>
		<circle fill="#FFFFFF" cx="1245.963" cy="915.834" r="70.867"/>
	</g>
	<g>
		<path fill="#F1F1F2" d="M412.334,1258.83c15.47,0,27.995,4.959,37.571,14.873c9.701,10.041,14.49,21.859,14.49,35.461
			c0,13.729-4.79,25.674-14.49,35.971c-9.576,10.041-21.978,15.125-37.203,15.125h-10.191l62.619,58.975h-57.954l-88.896-91.006
			h87.056c4.91,0,8.962-1.65,12.276-5.084c3.192-3.305,4.79-7.244,4.79-11.818c0-4.703-1.598-8.645-4.667-11.822
			c-3.069-3.305-6.998-4.957-12.033-4.957h-93.806v124.688h-42.605V1258.83H412.334z"/>
		<path fill="#F1F1F2" d="M1263.664,1274.486c-0.227-0.215-0.453-0.439-0.692-0.654c-10.952-10.146-25.516-15.291-43.687-15.291
			h-74.857c-18.171,0-32.733,5.145-43.685,15.291c-0.241,0.215-0.467,0.439-0.693,0.654c-10.901,10.588-16.347,23.088-16.347,37.637
			v53.82c0,14.16,5.445,26.533,16.475,37.373c0.174,0.164,0.35,0.34,0.527,0.504c11.216,10.512,25.702,15.707,43.723,15.707h74.857
			c18.021,0,32.507-5.195,43.726-15.721c0.175-0.15,0.351-0.326,0.527-0.49c11.026-10.84,16.486-23.213,16.486-37.373v-53.82
			C1280.025,1297.574,1274.565,1285.074,1263.664,1274.486z M1155.845,1383.172c-7.91-0.125-14.398-2.301-19.591-6.639
			c-5.055-4.34-7.658-10.199-7.658-17.467v-40.82c0-7.281,2.464-13.139,7.533-17.604c5.317-4.465,11.932-6.764,19.716-6.764h52.022
			c7.786,0,14.413,2.299,19.732,6.764c5.055,4.465,7.519,10.322,7.519,17.604v40.82c0,7.268-2.591,13.127-7.657,17.467
			c-5.181,4.338-11.67,6.514-19.594,6.639H1155.845z"/>
		<path fill="#F1F1F2" d="M1481.373,1274.486c-0.227-0.215-0.453-0.439-0.692-0.654c-10.952-10.146-25.516-15.291-43.687-15.291
			h-74.857c-18.171,0-32.733,5.145-43.685,15.291c-0.241,0.215-0.467,0.439-0.693,0.654c-10.901,10.588-16.347,23.088-16.347,37.637
			v53.82c0,14.16,5.445,26.533,16.475,37.373c0.174,0.164,0.35,0.34,0.527,0.504c11.216,10.512,25.703,15.707,43.723,15.707h74.857
			c18.021,0,32.507-5.195,43.725-15.721c0.176-0.15,0.353-0.326,0.528-0.49c11.026-10.84,16.487-23.213,16.487-37.373v-53.82
			C1497.735,1297.574,1492.274,1285.074,1481.373,1274.486z M1373.554,1383.172c-7.91-0.125-14.398-2.301-19.591-6.639
			c-5.055-4.34-7.658-10.199-7.658-17.467v-40.82c0-7.281,2.464-13.139,7.534-17.604c5.316-4.465,11.931-6.764,19.715-6.764h52.022
			c7.786,0,14.414,2.299,19.732,6.764c5.056,4.465,7.519,10.322,7.519,17.604v40.82c0,7.268-2.591,13.127-7.658,17.467
			c-5.179,4.338-11.669,6.514-19.593,6.639H1373.554z"/>
		<path fill="#F1F1F2" d="M889.744,1411.035c-8.529-8.383-14.294-17.707-17.304-27.867h-96.335
			c-7.916-0.127-14.405-2.295-19.593-6.633c-5.063-4.336-7.656-10.203-7.656-17.475v-40.818c0-7.271,2.463-13.139,7.526-17.604
			c5.317-4.465,11.937-6.76,19.723-6.76h96.525c3.044-9.998,8.699-19.057,16.941-27.061c3.278-3.146,6.825-5.904,10.634-8.273
			H764.687c-18.557,0-33.35,5.357-44.379,15.945c-10.899,10.588-16.351,23.088-16.351,37.629v53.828
			c0,14.16,5.452,26.533,16.479,37.375c11.291,10.842,25.953,16.201,44.251,16.201h135.967
			C896.756,1417.102,893.115,1414.273,889.744,1411.035z"/>
		<path fill="#F1F1F2" d="M1079.617,1411.035c-8.528-8.383-14.292-17.707-17.302-27.867h-96.337
			c-7.918-0.127-14.406-2.295-19.596-6.633c-5.06-4.336-7.655-10.203-7.655-17.475v-40.818c0-7.271,2.467-13.139,7.524-17.604
			c5.32-4.465,11.94-6.76,19.727-6.76h96.522c3.045-9.998,8.702-19.057,16.943-27.061c3.28-3.146,6.827-5.904,10.635-8.273H954.559
			c-18.556,0-33.351,5.357-44.38,15.945c-10.899,10.588-16.351,23.088-16.351,37.629v53.828c0,14.16,5.451,26.533,16.48,37.375
			c11.289,10.842,25.953,16.201,44.25,16.201h135.968C1086.63,1417.102,1082.989,1414.273,1079.617,1411.035z"/>
		<path fill="#F1F1F2" d="M1714.959,1419.311h-42.728l-110.504-104.703v104.703h-42.605v-160.555h42.605l110.504,105.086v-105.086
			h42.728V1419.311z"/>
		<g>
			<path fill="#F1F1F2" d="M642.899,1419.234v-101.172c-0.116-7.5-2.414-13.348-6.783-17.541
				c-4.486-4.447-10.234-6.609-17.479-6.609h-68.072c-7.128,0-12.878,2.162-17.363,6.609c-4.253,4.322-6.553,10.168-6.783,17.541
				v101.172h-39.9v-107.018c0-14.49,4.829-26.947,14.489-37.496c9.772-10.551,22.881-15.891,39.325-15.891h88.423
				c16.675,0,29.782,5.34,39.327,15.891c9.659,10.42,14.488,22.75,14.488,37.113v107.4H642.899z"/>
			<rect x="517.156" y="1328.229" fill="#F1F1F2" width="135.006" height="32.031"/>
		</g>
	</g>
	<g>
		<path fill="#F1F1F2" d="M1480.919,1495.137c13.387,0,24.223,4.289,32.511,12.867c8.393,8.688,12.536,18.916,12.536,30.684
			c0,11.877-4.144,22.215-12.536,31.125c-8.288,8.686-19.016,13.086-32.191,13.086h-8.818l54.184,51.031h-50.146l-76.917-78.744
			h75.324c4.25,0,7.756-1.432,10.626-4.4c2.761-2.857,4.142-6.268,4.142-10.227c0-4.068-1.381-7.479-4.036-10.23
			c-2.658-2.859-6.059-4.289-10.413-4.289h-81.166v107.891h-36.865v-138.793H1480.919z"/>
		<path fill="#F1F1F2" d="M613.102,1508.68c-0.193-0.184-0.39-0.377-0.597-0.564c-9.477-8.779-22.077-13.23-37.799-13.23h-64.775
			c-15.72,0-28.32,4.451-37.797,13.23c-0.207,0.188-0.401,0.381-0.598,0.564c-9.434,9.164-14.145,19.98-14.145,32.568v46.566
			c0,12.254,4.711,22.959,14.252,32.34c0.152,0.143,0.305,0.295,0.457,0.434c9.704,9.098,22.24,13.592,37.83,13.592h64.775
			c15.593,0,28.127-4.494,37.832-13.6c0.152-0.131,0.303-0.283,0.457-0.426c9.541-9.381,14.263-20.086,14.263-32.34v-46.566
			C627.258,1528.66,622.536,1517.844,613.102,1508.68z M519.813,1602.723c-6.843-0.107-12.458-1.99-16.953-5.744
			c-4.373-3.754-6.625-8.824-6.625-15.115v-35.316c0-6.299,2.134-11.369,6.52-15.236c4.601-3.857,10.323-5.85,17.059-5.85h45.013
			c6.736,0,12.469,1.992,17.071,5.85c4.376,3.867,6.508,8.938,6.508,15.236v35.316c0,6.291-2.242,11.361-6.625,15.115
			c-4.485,3.754-10.099,5.637-16.954,5.744H519.813z"/>
		<path fill="#F1F1F2" d="M313.554,1579.6c-13.104,0-23.829-4.178-32.062-12.648c-8.232-8.469-12.35-18.584-12.35-30.242
			c0-11.545,4.117-21.334,12.35-29.582c7.908-8.029,18.522-11.986,32.062-11.986h115.798l-10.291,29.912H317.564
			c-2.927,0-5.419,1.1-7.476,3.189c-1.95,1.98-3.034,4.508-3.143,7.697c0.108,2.639,1.192,5.057,3.143,7.258
			c2.275,2.092,4.982,3.191,8.014,3.191h75.177c13.759,0,24.699,4.178,32.93,12.645c8.448,8.689,12.675,18.807,12.675,30.463
			c0,12.096-4.227,22.545-12.675,31.232c-8.556,8.797-19.497,13.195-32.93,13.195H270.876l10.291-30.021h110.705
			c3.464,0,6.393-1.211,8.773-3.631c2.386-2.418,3.573-5.275,3.573-8.576c0-3.297-1.188-6.156-3.464-8.467
			c-2.275-2.42-4.982-3.629-8.341-3.629H313.554z"/>
		<path fill="#F1F1F2" d="M795.688,1553.084l-11.132,30.932h-97.938v49.979h-40.854v-138.922h169.227l-11.134,30.934H686.619v27.078
			H795.688z"/>
		<path fill="#F1F1F2" d="M883.788,1633.93v-107.924h-50.293l11.134-30.869h204.428l-13.684,30.869H920.21v107.924H883.788z"/>
		<path fill="#F1F1F2" d="M1144.96,1591.078l41.086-96.053h39.986l-61.574,139.014h-37.894l-42.521-93.52l-41.417,93.52h-37.784
			l-40.291-89.527h40.52l19.932,46.566l42.562-95.941h35L1144.96,1591.078z"/>
		<path fill="#F1F1F2" d="M1705.653,1549.863l-10.167,28.346h-109.708v24.928h129.331l-11.112,30.994h-158.888v-139.195h170
			l-11.112,30.992h-118.219v23.936H1705.653z"/>
		<g>
			<path fill="#F1F1F2" d="M1326.1,1508.887c-8.247-9.129-19.595-13.754-34.024-13.754h-47.538l-13.448,30.355h52.239
				c6.267,0,11.24,1.873,15.113,5.725c3.787,3.623,5.777,8.684,5.874,15.178v87.537h34.33v-92.934
				C1338.646,1528.568,1334.468,1517.904,1326.1,1508.887z"/>
			<polygon fill="#F1F1F2" points="1312.88,1555.184 1312.88,1582.895 1205.66,1582.895 1217.936,1555.184 			"/>
		</g>
	</g>
</g>
</svg>
