<?xml version="1.0" encoding="utf-8"?>
<!-- Generator: Adobe Illustrator 16.0.0, SVG Export Plug-In . SVG Version: 6.00 Build 0)  -->
<!DOCTYPE svg PUBLIC "-//W3C//DTD SVG 1.1//EN" "http://www.w3.org/Graphics/SVG/1.1/DTD/svg11.dtd">
<svg version="1.1" id="Layer_4" xmlns="http://www.w3.org/2000/svg" xmlns:xlink="http://www.w3.org/1999/xlink" x="0px" y="0px"
	 width="4935.985px" height="832.918px" viewBox="0 0 4935.985 832.918" enable-background="new 0 0 4935.985 832.918"
	 xml:space="preserve">
<g>
	<path d="M170.725,87.093c-4.949,26.132-7.445,52.783-7.445,79.674c0,59.113,11.988,116.383,34.801,169.039
		c71.531-75.482,159.168-135.541,257.416-174.674c-70.75-49.447-154.775-76.079-242.896-76.079
		C198.6,85.052,184.613,85.736,170.725,87.093z"/>
	<path d="M1274.942,87.093c4.949,26.132,7.445,52.783,7.445,79.674c0,59.113-11.988,116.383-34.801,169.039
		c-71.53-75.482-159.17-135.541-257.418-174.674c70.75-49.447,154.775-76.079,242.898-76.079
		C1247.067,85.052,1261.053,85.736,1274.942,87.093z"/>
	<path fill="#FFFFFF" d="M1307.221,407.406c38.414-71.688,60.205-153.618,60.205-240.639c0-53.953-8.383-105.946-23.902-154.759
		c-35.568-7.851-72.527-11.997-110.457-11.997c-130.795,0-250.088,49.221-340.387,130.144
		c-54.475-13.12-111.348-20.079-169.848-20.079h-0.002c-58.5,0-115.373,6.959-169.846,20.079
		C462.689,49.231,343.393,0.01,212.6,0.01c-37.93,0-74.889,4.146-110.457,11.997C86.623,60.82,78.24,112.813,78.24,166.766
		c0,87.021,21.793,168.951,60.205,240.639C51.379,526.781,0,673.845,0,832.907h42.52h42.52h42.52h85.043
		c0-145.459,60.869-276.709,158.527-369.65l0.311-0.289c25.41-24.131,59.75-38.928,97.551-38.928
		c78.281,0,141.739,63.457,141.739,141.738c0,40.42-16.932,76.889-44.07,102.709c-15.069,14.322-28.169,30.701-38.86,48.67
		c-20.16,33.883-31.74,73.461-31.74,115.75h113.387c0-62.619,50.764-113.385,113.385-113.385h0.002
		c62.621,0,113.385,50.766,113.385,113.385h113.389c0-42.289-11.58-81.867-31.74-115.75c-10.691-17.969-23.791-34.348-38.861-48.67
		c-27.139-25.82-44.068-62.289-44.068-102.709c0-78.281,63.461-141.738,141.738-141.738c37.803,0,72.141,14.797,97.553,38.928
		l0.309,0.289c97.659,92.941,158.529,224.191,158.529,369.65h85.043h42.518h42.521h42.52
		C1445.667,673.845,1394.288,526.781,1307.221,407.406z M1233.067,85.052c14,0,27.986,0.684,41.875,2.04
		c4.949,26.132,7.445,52.783,7.445,79.674c0,59.113-11.988,116.383-34.801,169.039c-71.53-75.482-159.17-135.541-257.418-174.674
		C1060.918,111.684,1144.944,85.052,1233.067,85.052z M170.725,87.093c13.889-1.356,27.875-2.04,41.875-2.04
		c88.121,0,172.146,26.632,242.896,76.079c-98.248,39.133-185.885,99.191-257.416,174.674
		c-22.813-52.656-34.801-109.926-34.801-169.039C163.279,139.876,165.775,113.224,170.725,87.093z M722.833,540.144v0.006
		l-0.002,0.006v-0.012c-8.639-86.682-60.672-160.577-134.053-199.667c42.711-11.609,87.66-17.801,134.051-17.801h0.002h0.002h0.002
		c46.393,0,91.34,6.191,134.051,17.801C783.504,379.567,731.471,453.462,722.833,540.144z"/>
	<path d="M856.885,340.477c-42.711-11.609-87.658-17.801-134.051-17.801h-0.002h-0.002h-0.002c-46.391,0-91.34,6.191-134.051,17.801
		c73.381,39.09,125.414,112.985,134.053,199.667v0.012l0.002-0.006v0.002v-0.008C731.471,453.462,783.504,379.567,856.885,340.477z"
		/>
	<path d="M722.833,719.523h-0.002c-62.621,0-113.385,50.766-113.385,113.385h113.385h0.002h113.385
		C836.217,770.288,785.454,719.523,722.833,719.523z"/>
	<path d="M566.659,668.488c27.138-25.82,44.07-62.289,44.07-102.709c0-78.281-63.458-141.738-141.739-141.738
		c-37.801,0-72.141,14.797-97.551,38.928l-0.311,0.289c-97.658,92.941-158.527,224.191-158.527,369.65h283.457
		c0-42.289,11.58-81.867,31.74-115.75C538.49,699.189,551.59,682.81,566.659,668.488z M468.994,494.907
		c39.139,0,70.867,31.73,70.867,70.867c0,39.139-31.729,70.867-70.867,70.867s-70.865-31.729-70.865-70.867
		C398.129,526.638,429.855,494.907,468.994,494.907z"/>
	<path d="M917.866,717.157c20.16,33.883,31.74,73.461,31.74,115.75h283.459c0-145.459-60.87-276.709-158.529-369.65l-0.309-0.289
		c-25.412-24.131-59.75-38.928-97.553-38.928c-78.277,0-141.738,63.457-141.738,141.738c0,40.42,16.93,76.889,44.068,102.709
		C894.075,682.81,907.174,699.189,917.866,717.157z M1047.536,565.775c0,39.139-31.725,70.867-70.865,70.867
		c-39.139,0-70.867-31.729-70.867-70.867c0-39.137,31.729-70.867,70.867-70.867C1015.811,494.907,1047.536,526.638,1047.536,565.775
		z"/>
	<circle fill="#FFFFFF" cx="468.994" cy="565.775" r="70.867"/>
	<circle fill="#FFFFFF" cx="976.67" cy="565.775" r="70.867"/>
</g>
<g>
	<g>
		<path d="M2045.372,0.364c34.324,0,62.116,11.003,83.362,33c21.524,22.279,32.151,48.502,32.151,78.681
			c0,30.461-10.627,56.966-32.151,79.813c-21.246,22.279-48.765,33.559-82.545,33.559h-22.613l138.939,130.854h-128.589
			l-197.242-201.925h193.161c10.895,0,19.885-3.662,27.238-11.281c7.083-7.332,10.628-16.073,10.628-26.223
			c0-10.435-3.545-19.18-10.354-26.231c-6.811-7.332-15.527-10.999-26.7-10.999H1822.52v276.658h-94.532V0.364H2045.372z"/>
		<path d="M3934.314,35.102c-0.503-0.477-1.005-0.975-1.536-1.451c-24.301-22.513-56.614-33.928-96.933-33.928h-166.094
			c-40.318,0-72.63,11.415-96.929,33.928c-0.535,0.477-1.035,0.975-1.538,1.451c-24.188,23.493-36.271,51.228-36.271,83.509v119.417
			c0,31.419,12.082,58.872,36.555,82.924c0.385,0.364,0.775,0.754,1.169,1.118c24.887,23.324,57.029,34.851,97.014,34.851h166.094
			c39.987,0,72.127-11.527,97.02-34.881c0.388-0.334,0.777-0.724,1.17-1.088c24.466-24.052,36.58-51.505,36.58-82.924V118.611
			C3970.615,86.33,3958.5,58.595,3934.314,35.102z M3695.083,276.255c-17.551-0.277-31.947-5.105-43.468-14.73
			c-11.215-9.629-16.992-22.63-16.992-38.755v-90.573c0-16.156,5.467-29.153,16.715-39.059
			c11.798-9.907,26.475-15.008,43.745-15.008h115.429c17.276,0,31.979,5.101,43.782,15.008
			c11.216,9.906,16.683,22.903,16.683,39.059v90.573c0,16.125-5.748,29.126-16.989,38.755c-11.496,9.625-25.894,14.453-43.476,14.73
			H3695.083z"/>
		<path d="M4417.37,35.102c-0.503-0.477-1.006-0.975-1.536-1.451c-24.301-22.513-56.614-33.928-96.933-33.928h-166.095
			c-40.317,0-72.629,11.415-96.927,33.928c-0.536,0.477-1.036,0.975-1.539,1.451c-24.188,23.493-36.271,51.228-36.271,83.509
			v119.417c0,31.419,12.083,58.872,36.554,82.924c0.386,0.364,0.776,0.754,1.171,1.118c24.885,23.324,57.03,34.851,97.012,34.851
			h166.095c39.986,0,72.127-11.527,97.018-34.881c0.389-0.334,0.782-0.724,1.171-1.088c24.466-24.052,36.583-51.505,36.583-82.924
			V118.611C4453.672,86.33,4441.555,58.595,4417.37,35.102z M4178.138,276.255c-17.551-0.277-31.947-5.105-43.468-14.73
			c-11.216-9.629-16.992-22.63-16.992-38.755v-90.573c0-16.156,5.467-29.153,16.717-39.059
			c11.796-9.907,26.472-15.008,43.743-15.008h115.429c17.275,0,31.982,5.101,43.782,15.008
			c11.218,9.906,16.683,22.903,16.683,39.059v90.573c0,16.125-5.749,29.126-16.992,38.755c-11.49,9.625-25.892,14.453-43.473,14.73
			H4178.138z"/>
		<path d="M3104.656,338.079c-18.925-18.6-31.716-39.289-38.394-61.832h-213.75c-17.563-0.282-31.962-5.092-43.472-14.717
			c-11.233-9.621-16.988-22.638-16.988-38.772v-90.569c0-16.134,5.465-29.152,16.699-39.059
			c11.799-9.907,26.485-14.999,43.761-14.999h214.17c6.754-22.184,19.303-42.283,37.59-60.042
			c7.274-6.981,15.144-13.1,23.595-18.357h-300.69c-41.174,0-73.996,11.887-98.469,35.379c-24.183,23.493-36.28,51.228-36.28,83.492
			v119.434c0,31.419,12.098,58.872,36.564,82.928c25.053,24.056,57.585,35.947,98.185,35.947h301.685
			C3120.213,351.539,3112.133,345.264,3104.656,338.079z"/>
		<path d="M3525.948,338.079c-18.922-18.6-31.711-39.289-38.389-61.832h-213.754c-17.568-0.282-31.965-5.092-43.479-14.717
			c-11.226-9.621-16.985-22.638-16.985-38.772v-90.569c0-16.134,5.474-29.152,16.695-39.059
			c11.805-9.907,26.494-14.999,43.77-14.999h214.166c6.756-22.184,19.308-42.283,37.594-60.042
			c7.278-6.981,15.148-13.1,23.597-18.357h-300.694c-41.172,0-73.999,11.887-98.471,35.379
			c-24.185,23.493-36.279,51.228-36.279,83.492v119.434c0,31.419,12.095,58.872,36.566,82.928
			c25.049,24.056,57.586,35.947,98.184,35.947h301.687C3541.508,351.539,3533.428,345.264,3525.948,338.079z"/>
		<path d="M4935.654,356.44h-94.806l-245.187-232.317V356.44h-94.534V0.199h94.534l245.187,233.166V0.199h94.806V356.44z"/>
		<g>
			<path d="M2556.952,356.271V131.79c-0.256-16.641-5.354-29.616-15.05-38.92c-9.955-9.868-22.709-14.665-38.784-14.665H2352.08
				c-15.816,0-28.575,4.797-38.526,14.665c-9.438,9.59-14.539,22.561-15.051,38.92v224.482h-88.531V118.819
				c0-32.151,10.715-59.791,32.148-83.197c21.683-23.41,50.769-35.258,87.255-35.258h196.193c36.999,0,66.081,11.848,87.259,35.258
				c21.431,23.12,32.146,50.478,32.146,82.348v238.302H2556.952z"/>
			<rect x="2277.952" y="154.346" width="299.553" height="71.071"/>
		</g>
	</g>
	<g>
		<path d="M4416.362,524.685c29.703,0,53.745,9.516,72.136,28.55c18.621,19.274,27.815,41.971,27.815,68.081
			c0,26.353-9.194,49.29-27.815,69.061c-18.391,19.271-42.192,29.035-71.427,29.035h-19.566l120.224,113.229h-111.267
			l-170.664-174.719h167.131c9.43,0,17.208-3.177,23.576-9.764c6.126-6.34,9.19-13.906,9.19-22.69c0-9.027-3.064-16.593-8.956-22.7
			c-5.897-6.345-13.442-9.516-23.104-9.516h-180.093V832.64h-81.797V524.685H4416.362z"/>
		<path d="M2490.837,554.734c-0.43-0.408-0.864-0.837-1.323-1.252c-21.027-19.479-48.986-29.356-83.87-29.356H2261.92
			c-34.879,0-62.837,9.877-83.864,29.356c-0.459,0.415-0.891,0.844-1.326,1.252c-20.931,20.334-31.384,44.332-31.384,72.264v103.321
			c0,27.188,10.453,50.941,31.622,71.757c0.338,0.316,0.677,0.653,1.015,0.961c21.531,20.186,49.347,30.158,83.938,30.158h143.724
			c34.598,0,62.409-9.973,83.942-30.175c0.339-0.291,0.673-0.628,1.015-0.944c21.17-20.815,31.646-44.568,31.646-71.757V626.998
			C2522.248,599.066,2511.771,575.068,2490.837,554.734z M2283.846,763.398c-15.183-0.238-27.642-4.416-37.615-12.745
			c-9.703-8.329-14.7-19.58-14.7-33.538v-78.36c0-13.977,4.734-25.226,14.466-33.807c10.208-8.559,22.905-12.979,37.85-12.979
			h99.875c14.946,0,27.665,4.421,37.878,12.979c9.71,8.581,14.439,19.83,14.439,33.807v78.36c0,13.958-4.975,25.209-14.699,33.538
			c-9.953,8.329-22.407,12.507-37.618,12.745H2283.846z"/>
		<path d="M1826.197,712.092c-29.076,0-52.873-9.269-71.139-28.064c-18.267-18.79-27.401-41.234-27.401-67.101
			c0-25.617,9.135-47.337,27.401-65.638c17.547-17.815,41.098-26.595,71.139-26.595h256.934l-22.834,66.368h-225.2
			c-6.494,0-12.024,2.44-16.588,7.077c-4.326,4.395-6.731,10.002-6.973,17.079c0.241,5.855,2.646,11.22,6.973,16.104
			c5.049,4.641,11.056,7.081,17.781,7.081h166.803c30.528,0,54.804,9.27,73.065,28.056c18.745,19.281,28.123,41.729,28.123,67.592
			c0,26.838-9.378,50.022-28.123,69.299c-18.983,19.519-43.261,29.277-73.065,29.277h-271.59l22.834-66.611h245.634
			c7.686,0,14.185-2.687,19.467-8.056c5.294-5.366,7.928-11.705,7.928-19.029c0-7.315-2.634-13.659-7.685-18.787
			c-5.05-5.368-11.056-8.052-18.507-8.052H1826.197z"/>
		<path d="M2895.963,653.26l-24.699,68.632h-217.305v110.893h-90.648V524.542h375.481l-24.703,68.636h-260.13v60.082H2895.963z"/>
		<path d="M3091.441,832.64V593.177h-111.592l24.704-68.492h453.587l-30.361,68.492h-255.525V832.64H3091.441z"/>
		<path d="M3670.931,737.56l91.163-213.122h88.722l-136.621,308.444h-84.079l-94.345-207.502l-91.897,207.502h-83.836
			l-89.397-198.644h89.905l44.225,103.321l94.436-212.875h77.658L3670.931,737.56z"/>
		<path d="M4915.003,646.112l-22.559,62.895h-243.422v55.31h286.962l-24.656,68.771h-352.542v-308.85h377.198l-24.656,68.767
			h-262.306v53.107H4915.003z"/>
		<g>
			<path d="M4072.846,555.193c-18.298-20.255-43.476-30.517-75.493-30.517h-105.478l-29.84,67.353h115.909
				c13.904,0,24.94,4.155,33.533,12.701c8.403,8.04,12.819,19.268,13.034,33.678v194.228h76.172V626.433
				C4100.684,598.863,4091.415,575.202,4072.846,555.193z"/>
			<polygon points="4043.514,657.918 4043.514,719.403 3805.615,719.403 3832.851,657.918 			"/>
		</g>
	</g>
</g>
</svg>
