<?xml version="1.0" encoding="utf-8"?>
<!-- Generator: Adobe Illustrator 16.0.0, SVG Export Plug-In . SVG Version: 6.00 Build 0)  -->
<!DOCTYPE svg PUBLIC "-//W3C//DTD SVG 1.1//EN" "http://www.w3.org/Graphics/SVG/1.1/DTD/svg11.dtd">
<svg version="1.1" id="Layer_4" xmlns="http://www.w3.org/2000/svg" xmlns:xlink="http://www.w3.org/1999/xlink" x="0px" y="0px"
	 width="1984.252px" height="1984.25px" viewBox="0 0 1984.252 1984.25" enable-background="new 0 0 1984.252 1984.25"
	 xml:space="preserve">
<rect width="1984.252" height="1984.25"/>
<g>
	<g>
		<path d="M440.016,422.972c-4.949,26.132-7.445,52.783-7.445,79.674c0,59.113,11.988,116.383,34.801,169.039
			c71.531-75.482,159.168-135.541,257.417-174.674c-70.751-49.447-154.775-76.079-242.897-76.079
			C467.891,420.932,453.905,421.615,440.016,422.972z"/>
		<path d="M1544.236,422.972c4.949,26.132,7.445,52.783,7.445,79.674c0,59.113-11.989,116.383-34.801,169.039
			c-71.531-75.482-159.171-135.541-257.418-174.674c70.75-49.447,154.774-76.079,242.897-76.079
			C1516.36,420.932,1530.347,421.615,1544.236,422.972z"/>
		<path fill="#FFFFFF" d="M1576.515,743.284c38.413-71.688,60.204-153.617,60.204-240.639c0-53.953-8.382-105.946-23.901-154.759
			c-35.568-7.851-72.528-11.997-110.458-11.997c-130.794,0-250.088,49.221-340.387,130.144
			c-54.474-13.12-111.347-20.079-169.847-20.079h-0.003c-58.5,0-115.372,6.959-169.847,20.079
			C731.981,385.11,612.685,335.89,481.891,335.89c-37.93,0-74.889,4.146-110.457,11.997
			c-15.52,48.813-23.902,100.806-23.902,154.759c0,87.021,21.793,168.951,60.205,240.639
			c-87.066,119.375-138.445,266.439-138.445,425.502h42.52h42.52h42.52h85.043c0-145.459,60.869-276.709,158.528-369.65l0.311-0.289
			c25.41-24.131,59.75-38.929,97.551-38.929c78.28,0,141.739,63.458,141.739,141.739c0,40.42-16.932,76.889-44.069,102.709
			c-15.07,14.321-28.17,30.7-38.862,48.67c-20.159,33.882-31.739,73.461-31.739,115.75h113.388
			c0-62.619,50.764-113.385,113.385-113.385h0.003c62.621,0,113.385,50.766,113.385,113.385H1218.9
			c0-42.289-11.58-81.868-31.74-115.75c-10.691-17.97-23.791-34.349-38.861-48.67c-27.139-25.82-44.069-62.289-44.069-102.709
			c0-78.281,63.461-141.739,141.739-141.739c37.802,0,72.14,14.798,97.552,38.929l0.31,0.289
			c97.659,92.941,158.528,224.191,158.528,369.65h85.044h42.517h42.521h42.521C1714.96,1009.724,1663.582,862.659,1576.515,743.284z
			 M1502.36,420.932c14,0,27.987,0.684,41.876,2.04c4.949,26.132,7.445,52.783,7.445,79.674c0,59.113-11.989,116.383-34.801,169.039
			c-71.531-75.482-159.171-135.541-257.418-174.674C1330.212,447.563,1414.237,420.932,1502.36,420.932z M440.016,422.972
			c13.889-1.356,27.875-2.04,41.875-2.04c88.122,0,172.146,26.632,242.897,76.079c-98.249,39.133-185.886,99.191-257.417,174.674
			c-22.813-52.656-34.801-109.926-34.801-169.039C432.571,475.755,435.067,449.104,440.016,422.972z M992.126,876.022v0.006
			l-0.003,0.005v-0.011c-8.639-86.682-60.671-160.576-134.052-199.666c42.711-11.609,87.66-17.801,134.05-17.801h0.002h0.003h0.002
			c46.392,0,91.34,6.191,134.051,17.801C1052.798,715.446,1000.765,789.341,992.126,876.022z"/>
		<path d="M1126.179,676.356c-42.711-11.609-87.659-17.801-134.051-17.801h-0.002h-0.003h-0.002
			c-46.39,0-91.339,6.191-134.05,17.801c73.381,39.09,125.413,112.984,134.052,199.666v0.011l0.003-0.005v0.002v-0.008
			C1000.765,789.341,1052.798,715.446,1126.179,676.356z"/>
		<path d="M992.126,1055.401h-0.003c-62.621,0-113.385,50.766-113.385,113.385h113.385h0.003h113.385
			C1105.511,1106.167,1054.748,1055.401,992.126,1055.401z"/>
		<path d="M835.953,1004.366c27.138-25.82,44.069-62.289,44.069-102.709c0-78.281-63.459-141.739-141.739-141.739
			c-37.801,0-72.141,14.798-97.551,38.929l-0.311,0.289c-97.659,92.941-158.528,224.191-158.528,369.65h283.458
			c0-42.289,11.58-81.868,31.739-115.75C807.783,1035.066,820.882,1018.688,835.953,1004.366z M738.286,830.786
			c39.14,0,70.867,31.729,70.867,70.867c0,39.139-31.728,70.866-70.867,70.866c-39.138,0-70.864-31.728-70.864-70.866
			C667.421,862.516,699.148,830.786,738.286,830.786z"/>
		<path d="M1187.16,1053.036c20.16,33.882,31.74,73.461,31.74,115.75h283.458c0-145.459-60.869-276.709-158.528-369.65l-0.31-0.289
			c-25.412-24.131-59.75-38.929-97.552-38.929c-78.278,0-141.739,63.458-141.739,141.739c0,40.42,16.931,76.889,44.069,102.709
			C1163.369,1018.688,1176.468,1035.066,1187.16,1053.036z M1316.83,901.653c0,39.139-31.726,70.866-70.865,70.866
			s-70.867-31.728-70.867-70.866c0-39.138,31.728-70.867,70.867-70.867S1316.83,862.516,1316.83,901.653z"/>
		<circle fill="#FFFFFF" cx="738.286" cy="901.653" r="70.867"/>
		<circle fill="#FFFFFF" cx="1245.964" cy="901.653" r="70.867"/>
	</g>
	<g>
		<g>
			<path fill="#F1F1F2" d="M437.694,1244.701c18.214,0,32.959,5.837,44.233,17.509c11.419,11.821,17.058,25.736,17.058,41.748
				c0,16.161-5.639,30.227-17.058,42.348c-11.274,11.822-25.875,17.807-43.8,17.807H426.13l73.721,69.432h-68.229l-104.657-107.142
				h102.49c5.781,0,10.552-1.943,14.454-5.984c3.757-3.891,5.638-8.529,5.638-13.915c0-5.536-1.881-10.177-5.493-13.917
				c-3.614-3.891-8.239-5.836-14.166-5.836H319.45v146.794h-50.158v-188.843H437.694z"/>
			<path fill="#F1F1F2" d="M1439.961,1263.133c-0.267-0.253-0.533-0.519-0.815-0.771c-12.894-11.946-30.039-18.002-51.432-18.002
				h-88.13c-21.393,0-38.536,6.056-51.43,18.002c-0.283,0.252-0.549,0.518-0.816,0.771c-12.834,12.464-19.244,27.181-19.244,44.31
				v63.361c0,16.671,6.41,31.238,19.395,44c0.205,0.192,0.412,0.398,0.621,0.592c13.205,12.376,30.26,18.492,51.475,18.492h88.13
				c21.216,0,38.271-6.116,51.477-18.507c0.207-0.179,0.414-0.385,0.621-0.577c12.983-12.762,19.41-27.329,19.41-44v-63.361
				C1459.222,1290.313,1452.795,1275.597,1439.961,1263.133z M1313.027,1391.088c-9.313-0.149-16.951-2.71-23.065-7.816
				c-5.951-5.109-9.016-12.009-9.016-20.563v-48.058c0-8.572,2.901-15.469,8.869-20.726c6.261-5.255,14.048-7.964,23.212-7.964
				h61.246c9.165,0,16.968,2.709,23.229,7.964c5.951,5.257,8.852,12.153,8.852,20.726v48.058c0,8.555-3.05,15.454-9.016,20.563
				c-6.098,5.106-13.738,7.667-23.065,7.816H1313.027z"/>
			<path fill="#F1F1F2" d="M999.748,1423.891c-10.042-9.87-16.828-20.847-20.371-32.808H865.959
				c-9.318-0.149-16.958-2.703-23.066-7.809c-5.959-5.105-9.014-12.015-9.014-20.574v-48.055c0-8.56,2.901-15.469,8.861-20.725
				c6.261-5.256,14.053-7.959,23.219-7.959h113.639c3.584-11.77,10.242-22.434,19.945-31.857c3.86-3.706,8.036-6.952,12.521-9.74
				H852.516c-21.845,0-39.262,6.307-52.246,18.771c-12.832,12.465-19.25,27.182-19.25,44.301v63.373
				c0,16.669,6.418,31.236,19.401,44.001c13.292,12.765,30.555,19.071,52.095,19.071h160.075
				C1008.002,1431.031,1003.716,1427.702,999.748,1423.891z"/>
			<path fill="#F1F1F2" d="M1223.284,1423.891c-10.04-9.87-16.826-20.847-20.369-32.808h-113.417
				c-9.321-0.149-16.96-2.703-23.068-7.809c-5.958-5.105-9.014-12.015-9.014-20.574v-48.055c0-8.56,2.903-15.469,8.859-20.725
				c6.263-5.256,14.056-7.959,23.223-7.959h113.637c3.583-11.77,10.244-22.434,19.946-31.857c3.861-3.706,8.037-6.952,12.52-9.74
				h-159.547c-21.846,0-39.263,6.307-52.247,18.771c-12.832,12.465-19.25,27.182-19.25,44.301v63.373
				c0,16.669,6.418,31.236,19.402,44.001c13.291,12.765,30.554,19.071,52.095,19.071h160.074
				C1231.54,1431.031,1227.253,1427.702,1223.284,1423.891z"/>
			<path fill="#F1F1F2" d="M1714.96,1433.632h-50.304l-130.096-123.265v123.265h-50.16v-189.018h50.16l130.096,123.715v-123.715
				h50.304V1433.632z"/>
			<g>
				<path fill="#F1F1F2" d="M709.138,1433.544v-119.11c-0.137-8.829-2.843-15.714-7.987-20.649
					c-5.28-5.238-12.048-7.782-20.577-7.782h-80.142c-8.393,0-15.161,2.544-20.44,7.782c-5.009,5.086-7.716,11.97-7.987,20.649
					v119.11H525.03v-125.993c0-17.059,5.687-31.724,17.06-44.144c11.504-12.421,26.938-18.706,46.296-18.706h104.101
					c19.63,0,35.062,6.285,46.298,18.706c11.371,12.27,17.057,26.785,17.057,43.693v126.443H709.138z"/>
				<rect x="579.522" y="1326.402" fill="#F1F1F2" width="122.099" height="37.71"/>
			</g>
		</g>
		<g>
			<path fill="#F1F1F2" d="M1480.6,1509.37c13.382,0,24.213,4.287,32.499,12.861c8.389,8.686,12.53,18.91,12.53,30.672
				c0,11.873-4.142,22.207-12.53,31.113c-8.286,8.684-19.011,13.082-32.18,13.082h-8.815l54.163,51.01h-50.127l-76.887-78.713
				h75.294c4.248,0,7.753-1.43,10.621-4.398c2.76-2.857,4.141-6.266,4.141-10.223c0-4.068-1.381-7.477-4.035-10.225
				c-2.656-2.859-6.054-4.289-10.408-4.289h-81.135v107.848h-36.852V1509.37H1480.6z"/>
			<path fill="#F1F1F2" d="M613.119,1522.909c-0.194-0.184-0.391-0.379-0.598-0.564c-9.474-8.777-22.068-13.227-37.783-13.227
				h-64.75c-15.716,0-28.311,4.449-37.784,13.227c-0.207,0.186-0.402,0.381-0.598,0.564c-9.43,9.16-14.139,19.971-14.139,32.555
				v46.551c0,12.246,4.709,22.949,14.247,32.324c0.151,0.143,0.305,0.295,0.457,0.436c9.701,9.092,22.231,13.586,37.816,13.586
				h64.75c15.586,0,28.115-4.494,37.816-13.596c0.152-0.131,0.303-0.283,0.456-0.426c9.538-9.375,14.258-20.078,14.258-32.324
				v-46.551C627.268,1542.88,622.548,1532.069,613.119,1522.909z M519.864,1616.915c-6.84-0.107-12.452-1.99-16.946-5.742
				c-4.371-3.752-6.622-8.82-6.622-15.107v-35.305c0-6.297,2.133-11.365,6.516-15.229c4.601-3.859,10.321-5.85,17.053-5.85h44.996
				c6.733,0,12.464,1.99,17.065,5.85c4.372,3.863,6.505,8.932,6.505,15.229v35.305c0,6.287-2.242,11.355-6.623,15.107
				c-4.483,3.752-10.096,5.635-16.947,5.742H519.864z"/>
			<path fill="#F1F1F2" d="M313.687,1593.8c-13.103,0-23.821-4.176-32.051-12.643c-8.229-8.465-12.345-18.578-12.345-30.23
				c0-11.541,4.115-21.326,12.345-29.57c7.905-8.025,18.515-11.982,32.051-11.982h115.751l-10.287,29.9H317.694
				c-2.925,0-5.416,1.1-7.473,3.188c-1.948,1.98-3.032,4.508-3.141,7.695c0.108,2.639,1.192,5.057,3.141,7.256
				c2.275,2.09,4.98,3.189,8.013,3.189h75.146c13.753,0,24.689,4.176,32.918,12.641c8.445,8.684,12.67,18.797,12.67,30.451
				c0,12.092-4.225,22.535-12.67,31.219c-8.554,8.795-19.49,13.191-32.918,13.191H271.024l10.287-30.01h110.662
				c3.464,0,6.389-1.211,8.771-3.629c2.384-2.418,3.572-5.275,3.572-8.574c0-3.297-1.188-6.154-3.464-8.465
				c-2.272-2.418-4.98-3.627-8.338-3.627H313.687z"/>
			<path fill="#F1F1F2" d="M795.633,1567.296l-11.127,30.92h-97.899v49.959h-40.839v-138.869h169.16l-11.128,30.92H686.607v27.07
				H795.633z"/>
			<path fill="#F1F1F2" d="M883.701,1648.108v-107.883h-50.273l11.128-30.855h204.35l-13.68,30.855H920.108v107.883H883.701z"/>
			<path fill="#F1F1F2" d="M1144.77,1605.276l41.071-96.018h39.97l-61.551,138.961h-37.879l-42.503-93.482l-41.401,93.482h-37.769
				l-40.276-89.494h40.505l19.923,46.551l42.545-95.906h34.987L1144.77,1605.276z"/>
			<path fill="#F1F1F2" d="M1705.247,1564.077l-10.163,28.334h-109.666v24.916h129.281l-11.108,30.982h-158.825v-139.141h169.934
				l-11.108,30.98h-118.173v23.928H1705.247z"/>
			<g>
				<path fill="#F1F1F2" d="M1325.841,1523.114c-8.245-9.125-19.589-13.748-34.012-13.748h-47.52l-13.443,30.344h52.219
					c6.265,0,11.235,1.873,15.107,5.723c3.784,3.621,5.774,8.68,5.872,15.172v87.502h34.316v-92.896
					C1338.381,1542.79,1334.206,1532.13,1325.841,1523.114z"/>
				<polygon fill="#F1F1F2" points="1298.541,1569.394 1298.541,1597.095 1205.449,1597.095 1217.717,1569.394 				"/>
			</g>
		</g>
	</g>
</g>
</svg>
